<?xml version="1.0" encoding="UTF-8" standalone="no"?>
<!-- Created with Inkscape (http://www.inkscape.org/) -->

<svg
   width="210mm"
   height="297mm"
   viewBox="0 0 210 297"
   version="1.1"
   id="svg1"
   inkscape:version="1.3.2 (091e20e, 2023-11-25, custom)"
   sodipodi:docname="simpler.svg"
   xmlns:inkscape="http://www.inkscape.org/namespaces/inkscape"
   xmlns:sodipodi="http://sodipodi.sourceforge.net/DTD/sodipodi-0.dtd"
   xmlns="http://www.w3.org/2000/svg"
   xmlns:svg="http://www.w3.org/2000/svg">
  <sodipodi:namedview
     id="namedview1"
     pagecolor="#ffffff"
     bordercolor="#000000"
     borderopacity="0.25"
     inkscape:showpageshadow="2"
     inkscape:pageopacity="0.0"
     inkscape:pagecheckerboard="0"
     inkscape:deskcolor="#d1d1d1"
     inkscape:document-units="mm"
     inkscape:zoom="1.684603"
     inkscape:cx="396.82941"
     inkscape:cy="560.96304"
     inkscape:window-width="3747"
     inkscape:window-height="2126"
     inkscape:window-x="82"
     inkscape:window-y="-11"
     inkscape:window-maximized="1"
     inkscape:current-layer="layer1" />
  <defs
     id="defs1" />
  <g
     inkscape:label="Layer 1"
     inkscape:groupmode="layer"
     id="layer1">
    <path
       style="fill:#000000;stroke-width:0.264999;paint-order:stroke markers fill"
       d="m 104.28768,99.575883 c -0.25327,1.596597 -1.18078,2.832747 -1.88472,4.240617 -0.41883,0.83765 -0.76012,1.71878 -1.25648,2.51295 -0.27747,0.44396 -0.64839,0.82327 -0.94236,1.25648 -7.232723,10.65876 1.32904,-1.5681 -3.29825,4.71179 -2.33934,3.17482 0.377756,-0.33104 -1.727658,2.82708 -0.331113,0.49667 -0.762349,0.9209 -1.099418,1.41354 -0.982387,1.43579 -1.844691,2.96188 -2.827075,4.39767 -0.918266,1.34208 -1.935882,2.61528 -2.670017,4.08356 -1.478907,1.47633 -1.361942,3.60646 -2.198838,5.34003 -2.27018,4.70251 -0.859808,1.09138 -2.198835,3.76943 -1.483061,2.96612 -2.773874,6.05354 -4.083553,9.10947 -0.958514,2.23652 -1.946164,4.48836 -2.827076,6.75356 -0.180017,0.4629 -0.272108,0.95852 -0.47118,1.41354 -0.81928,1.87264 -2.235287,4.01746 -3.298254,5.81121 -5.017336,9.18097 0.282911,-0.73328 -2.984137,4.7118 -0.301146,0.50191 -0.487524,1.06667 -0.785297,1.5706 -1.402995,2.37429 -1.083762,1.27071 -2.198838,3.61237 -0.242422,0.50909 -0.388149,1.06041 -0.628237,1.5706 -0.978599,2.07951 -0.267227,0.22033 -1.099421,1.88471 -0.118324,0.23665 -0.352853,1.01983 -0.471178,1.25648 -0.136519,0.27304 -0.347196,0.50634 -0.47118,0.7853 -0.180091,0.40521 -0.212847,0.85139 -0.314119,1.25648 -0.153678,0.61471 -0.455554,1.12326 -0.62824,1.72766 -0.259186,0.90714 -0.433348,1.79014 -0.785299,2.67001 -0.311727,0.77932 -0.676981,1.55977 -0.942358,2.3559 -0.06826,0.20478 -0.06052,0.43517 -0.15706,0.62824 -0.06622,0.13244 -0.259125,0.17663 -0.314118,0.31412 -0.09271,0.23178 -0.09371,0.97271 -0.314119,1.41354 -0.157062,0.31411 -0.296939,0.63743 -0.471181,0.94235 -0.12987,0.22728 -0.307654,0.42384 -0.471177,0.62824 -0.04625,0.0578 -0.157062,0.083 -0.157062,0.15706 0,0.41774 0.467664,-0.3106 0.47118,-0.31412 0.03702,-0.037 0.120042,0.037 0.157059,0 0.03702,-0.037 -0.04188,-0.12565 0,-0.15706 0.33767,-0.25325 0.755955,-0.38291 1.099418,-0.62824 0.392769,-0.28055 0.690113,-0.68654 1.099418,-0.94236 0.239078,-0.14942 0.543547,-0.16906 0.785299,-0.31411 0.953934,-0.57236 1.626717,-1.29787 2.670017,-1.88472 2.188839,-1.23122 4.527338,-2.13674 6.753568,-3.29826 2.079292,-1.08484 4.235813,-1.98999 6.282391,-3.14119 1.616808,-0.90946 3.036007,-2.08469 4.554734,-3.1412 0.405444,-0.28204 0.854575,-0.49822 1.256477,-0.7853 0.332729,-0.23766 0.595619,-0.56858 0.942358,-0.78529 0.496359,-0.31023 1.07115,-0.48009 1.570599,-0.7853 0.446719,-0.273 0.816935,-0.65795 1.256477,-0.94236 1.434705,-0.92834 2.972345,-1.7198 4.397674,-2.67002 0.435604,-0.2904 0.820872,-0.65195 1.256477,-0.94236 4.915437,-3.27695 0.587925,-0.31566 3.926496,-2.35589 0.966404,-0.59058 1.841713,-1.32635 2.827073,-1.88472 1.0798,-0.61188 2.18817,-1.17261 3.29826,-1.72766 1.94893,-0.97446 3.50693,-1.42869 5.65415,-2.35589 2.63396,-1.13739 4.98598,-2.65005 7.53886,-3.9265 0.33936,-0.16967 2.36682,-0.85813 2.67002,-0.94236 0.46506,-0.12918 0.9616,-0.14464 1.41354,-0.31411 0.39521,-0.14821 0.71146,-0.46198 1.09942,-0.62824 0.35032,-0.15014 0.74048,-0.18593 1.09942,-0.31412 2.42945,-0.86766 4.78132,-1.99801 7.06769,-3.1412 2.35021,-1.1751 -1.09732,0.67576 1.88471,-0.47118 0.35236,-0.13552 0.59958,-0.47003 0.94236,-0.62824 0.34606,-0.15972 0.7476,-0.16752 1.09942,-0.31412 0.28179,-0.11741 0.50739,-0.34485 0.7853,-0.47118 0.94858,-0.43117 2.12964,-0.70892 3.14119,-0.94236 2.28361,-0.52698 4.30973,-0.35082 6.59651,-0.47117 0.68166,-0.0359 1.36711,-0.0533 2.04178,-0.15706 0.0517,-0.008 -0.037,-0.12004 0,-0.15706 0.15131,-0.15131 1.13895,-0.30433 1.25648,-0.31412 2.04856,-0.17072 4.71996,0.46709 6.59651,-0.47118 0.0468,-0.0234 0.037,-0.12004 0,-0.15706 -0.074,-0.074 -0.21479,0.0331 -0.31412,0 -2.00317,-0.66772 0.80264,0.0156 -2.19884,-0.47118 -1.46988,-0.23836 -2.93615,-0.50012 -4.39767,-0.7853 -1.10923,-0.21643 -2.18746,-0.57702 -3.29826,-0.7853 -1.81272,-0.33988 -0.69482,-0.0272 -2.51295,-0.15706 -1.84803,-0.132 -3.65615,-0.75826 -5.4971,-0.94236 -4.21363,-0.42136 1.18424,0.43591 -2.67001,-0.15706 -1.4126,-0.21732 -0.1567,-0.0784 -1.72766,-0.47117 -2.42196,-0.6055 -4.82183,-1.32981 -7.22475,-2.04178 -2.70144,-0.80043 -5.48322,-1.34488 -8.1671,-2.19884 -0.53732,-0.17096 -1.03568,-0.44993 -1.5706,-0.62824 -1.13257,-0.37752 -2.32274,-0.56483 -3.45531,-0.94236 -0.69178,-0.23059 -1.34064,-0.58497 -2.04178,-0.78529 -1.50176,-0.42908 -3.04879,-0.68529 -4.55473,-1.09942 -0.59085,-0.16249 -1.13012,-0.49244 -1.72766,-0.62824 -0.56388,-0.12816 -1.15961,-0.0489 -1.72766,-0.15706 -3.033747,-0.57786 -0.15322,-0.38088 -2.984135,-0.7853 -0.62408,-0.0891 -1.263623,-0.049 -1.884717,-0.15706 -1.226021,-0.21322 -2.394111,-0.68855 -3.612374,-0.94236 -0.623518,-0.1299 -1.268439,-0.15335 -1.884717,-0.31412 -0.592937,-0.15468 -1.136471,-0.467 -1.727658,-0.62824 -0.564703,-0.15401 -1.156706,-0.18519 -1.727658,-0.31412 -1.052782,-0.23772 -2.096444,-0.51444 -3.141194,-0.7853 -0.737881,-0.1913 -1.444223,-0.52043 -2.198838,-0.62823 -0.362789,-0.0518 -0.736629,0.0518 -1.099418,0 -0.804572,-0.11494 -1.564759,-0.44209 -2.355895,-0.62824 -5.366568,-1.26273 2.161918,0.4952 -2.670016,-0.47118 -1.180635,-0.23613 -2.966898,-0.63415 -4.083556,-1.09942 -0.32418,-0.13508 -0.609184,-0.36012 -0.942358,-0.47118 -0.302109,-0.1007 -0.634392,-0.076 -0.942359,-0.15706 -1.008784,-0.26547 -1.955196,-0.77087 -2.984134,-0.94236 -0.309846,-0.0516 -0.628238,0 -0.942359,0 -0.314119,-0.0524 -0.629359,-0.0984 -0.942358,-0.15706 -0.897412,-0.16826 -1.773196,-0.50012 -2.670017,-0.62824 -0.135728,-0.0194 -0.712583,0.0291 -0.785299,0 -0.137485,-0.055 -0.187142,-0.23793 -0.314119,-0.31412 -1.326694,-0.79601 0.172628,0.22611 -0.785299,-0.15706 -0.691224,-0.27649 -0.219927,-0.36797 -0.942358,-0.47118 -0.207307,-0.0296 -0.422892,0.0411 -0.628237,0 -0.0726,-0.0145 -0.08682,-0.13364 -0.157062,-0.15706 -0.210514,-0.0702 -0.775886,-0.0738 -0.942359,-0.15706 -1.706602,-1.02396 -0.07304,-0.12105 -1.256477,-0.62823 -0.348239,-0.14925 -2.058048,-1.24021 -2.355895,-0.94236 -0.176678,0.17667 0.02072,1.05198 0.157059,1.25647 0.123209,0.18482 0.347972,0.28637 0.471178,0.47118 0.19481,0.29222 0.264615,0.65834 0.471181,0.94236 0.217736,0.29939 0.548306,0.50091 0.785299,0.7853 0.908042,1.08965 1.65635,2.12753 2.670014,3.1412 0.994714,0.99471 2.015249,1.96425 2.984137,2.98413 1.441455,1.51732 2.602204,3.25668 3.926493,4.86885 1.225487,1.4919 2.573092,2.88231 3.769434,4.39768 0.395986,0.50158 0.693169,1.07729 1.099418,1.5706 0.94134,1.14305 2.122803,2.06622 3.141194,3.14119 1.373114,1.4494 2.69208,2.98366 3.926496,4.55473 0.605026,0.77004 0.816938,1.3853 1.413537,2.19884 0.806987,1.10044 0.991727,1.0676 1.884717,2.04177 0.851977,0.92943 1.700808,1.86266 2.512957,2.82708 0.290092,0.34449 0.496985,0.75344 0.785299,1.09942 1.012465,1.21496 2.336091,2.17903 3.455313,3.29825 1.182682,1.18269 2.346613,2.36509 3.455315,3.61238 1.06403,0.99901 0.524283,0.81761 1.413539,1.88472 0.28439,0.34126 0.65541,0.60323 0.942359,0.94235 0.90175,1.06571 0.682646,1.0619 1.413536,2.19884 0.243536,0.37883 0.573365,0.70204 0.785299,1.09942 0.210498,0.39468 0.278186,0.85295 0.471178,1.25648 0.383998,0.8029 0.858457,1.55985 1.25648,2.35589 0.752962,1.50593 1.410794,3.06621 2.198834,4.55474 0.17664,0.33365 0.43802,0.61626 0.62824,0.94235 0.17696,0.30336 0.27637,0.65015 0.47118,0.94236 0.45363,0.68044 1.10511,1.21235 1.5706,1.88472 0.24025,0.34704 0.39999,0.74437 0.62824,1.09942 0.62813,0.97709 1.40036,1.86495 2.04177,2.82707 0.56842,0.85264 1.00455,1.82094 1.5706,2.67002 0.49614,0.74421 0.9682,1.41949 1.41354,2.19884 0.1873,0.32778 0.36129,0.67541 0.62824,0.94236 0.0828,0.0828 0.24918,0.0597 0.31412,0.15706 0,0.34 -0.0468,0.32241 0.15706,0.62823 0.3836,0.57541 1.30168,1.512 1.72765,1.88472 0.40969,0.35847 1.06043,0.67568 1.41354,1.09942 0.14989,0.17986 0.13636,0.47587 0.31412,0.62824 0.21406,0.18348 0.54052,0.17424 0.7853,0.31412 0.20031,0.11446 0.33709,0.47118 0.62824,0.47118 0.14264,0 -0.29871,-3.91699 -0.31412,-4.24062 -0.12651,-2.6568 -0.1157,-5.66306 0,-8.32416 0.0957,-2.2008 0.39519,-4.39272 0.47118,-6.59651 0.0234,-0.68019 -0.0184,-1.36144 0,-2.04178 0.0495,-1.83244 0.32302,-3.67151 0.15706,-5.49709 -0.053,-0.58292 -0.23134,-1.14821 -0.31412,-1.72766 -0.62267,-4.35872 -0.89092,-8.80639 -1.25648,-13.19302 -0.13993,-1.67912 -0.52315,-3.34449 -0.62824,-5.02591 -0.0784,-1.25466 -0.0642,-2.51603 -0.15706,-3.76943 -0.21388,-2.88743 -0.72846,-5.75069 -0.94236,-8.63829 -0.0309,-0.41768 0.0261,-0.83847 0,-1.25648 -0.0798,-1.27724 -0.46286,-2.50153 -0.62823,-3.76943 -0.30077,-2.30585 -0.61351,-4.60869 -0.94236,-6.91063 -0.11205,-0.78429 -0.14812,-1.58123 -0.31412,-2.3559 -0.23612,-1.10188 -0.77012,-2.17867 -0.94236,-3.29825 -0.0478,-0.31047 0.0562,-0.63331 0,-0.94236 -0.0504,-0.27739 -0.22497,-0.51784 -0.31412,-0.7853 -0.32888,-0.98664 -0.52183,-2.03795 -0.94236,-2.98414 -0.12398,-0.27895 -0.35781,-0.50186 -0.47118,-0.7853 -0.0991,-0.24785 -0.0579,-0.53744 -0.15706,-0.78529 -0.11337,-0.28344 -0.34486,-0.5074 -0.47118,-0.7853 -0.13701,-0.30144 -0.1771,-0.64093 -0.31412,-0.94236 -0.25264,-0.55582 -0.71561,-1.00373 -0.94236,-1.5706 -0.0991,-0.24785 -0.0804,-0.5296 -0.15706,-0.7853 -0.24353,-0.81179 -0.31886,-0.69166 -0.62824,-1.41353 -0.28534,-0.66581 -0.47668,-1.91225 -0.62823,-2.67002 -0.12321,-0.61601 -0.36711,-1.26027 -0.47118,-1.88472 -0.20607,-1.236382 0.31944,0.5297 0.15706,-1.256477 -0.0902,-0.992023 -0.021,-0.942358 -0.47118,-0.942358"
       id="path1" />
    <path
       style="fill:#ffffff;stroke-width:0.264999;paint-order:stroke markers fill"
       d="m 85.126387,153.7615 c 0.351036,-0.7037 0.566039,-1.50892 0.942359,-2.19884 0.180779,-0.33142 0.436827,-0.61695 0.628239,-0.94236 0.689968,-1.17294 1.373738,-2.64904 1.884717,-3.92649 0.736915,-1.84229 1.061461,-3.73252 2.041777,-5.49709 0.162798,-0.29304 0.422431,-0.52069 0.62824,-0.7853 0.787294,-1.01223 3.079382,-3.60299 3.612372,-4.86885 0.428474,-1.01762 0.797827,-2.45611 0.942358,-3.61238 0.0579,-0.46316 -0.06599,-0.95158 0,-1.41353 0.09871,-0.69098 0.185407,-0.61349 0.471181,-1.25648 0.256378,-0.3813 0.294976,-0.84534 0.471178,-1.25648 0.377333,-0.88044 0.940676,-1.68545 1.413539,-2.51296 1.30729,-2.28775 -0.409845,0.66263 0.471178,-1.09941 0.168836,-0.33767 0.479525,-0.59536 0.62824,-0.94236 0.170061,-0.39681 0.092,-0.88629 0.314118,-1.25648 0.06023,-0.10038 0.209415,-0.10471 0.314122,-0.15706 0.05235,-0.10471 0.104706,-0.20941 0.157055,-0.31412 0.11545,-0.2309 0.24435,-0.82018 0.62824,-0.62824 0.31487,0.15743 1.44515,1.94793 1.5706,2.19884 0.14808,0.29615 0.17711,0.64092 0.31412,0.94236 0.41121,0.90467 1.02356,1.76007 1.41354,2.67001 0.15014,0.35032 0.17257,0.74554 0.31412,1.09942 0.11337,0.28344 0.37464,0.49569 0.47118,0.7853 0.36823,1.10469 0.34805,2.0331 0.47117,3.14119 0.0812,0.73114 0.37994,1.4689 0.47118,2.19884 0.0999,0.79898 0,1.70925 0,2.51296 0,1.89122 0.0124,3.77292 0.15706,5.65415 0.0565,0.73458 0.11688,0.98008 0.47118,1.5706 0.0381,0.0635 0.13911,0.0852 0.15706,0.15706 0.41211,1.64842 0.12942,3.36361 0.31412,5.02591 0.16315,1.46834 0.74609,2.9256 0.94236,4.39767 0.14301,1.07258 -0.19718,0.50788 0.15706,1.5706 0.074,0.22211 0.24008,0.40612 0.31412,0.62824 0.26492,0.79474 0.40352,1.85809 0.47118,2.67001 0.0688,0.8262 0.33655,1.54814 0.47118,2.3559 0.0844,0.50659 -0.10067,1.06724 0,1.5706 0.0971,0.4853 0.0641,1.19874 0.15706,1.57059 0.20388,0.81555 0.15706,-0.16767 0.15706,0.62824 0,0.74048 0.15706,1.44549 0.15706,2.19884 0,0.36647 0,0.73295 0,1.09942 0,0.1047 -0.10471,0.31412 0,0.31412 0.19214,0 -0.58017,-1.16035 -0.62824,-1.25648 -0.53142,-1.06284 -1.00175,-2.17331 -1.72766,-3.1412 -0.13327,-0.17769 -0.34797,-0.28636 -0.47118,-0.47118 -0.52353,-0.78529 -0.34902,-0.87255 -0.7853,-1.57059 -0.82173,-1.31479 -1.76678,-2.55852 -2.51295,-3.9265 -0.42917,-0.7868 -0.86438,-1.8069 -1.41354,-2.51295 -0.11589,-0.149 -0.35034,-0.16911 -0.47118,-0.31412 -0.14989,-0.17987 -0.16423,-0.44838 -0.31412,-0.62824 0.13522,-0.94008 -0.46268,-0.14856 -0.62824,-0.31412 -0.037,-0.037 0,-0.10471 0,-0.15706 -0.0523,-0.0524 -0.0954,-0.11599 -0.15706,-0.15706 -0.37181,-0.24787 -0.39593,-0.0818 -0.785295,-0.47118 -0.133477,-0.13348 -0.187846,-0.33087 -0.314121,-0.47118 -0.628698,-0.69855 -1.579319,-1.73056 -2.512954,-2.04178 -0.588479,-0.19615 -1.164815,0.0945 -1.727658,0.15706 -1.23489,0.13721 -2.643513,0.14192 -3.769434,0.7853 -0.128569,0.0735 -0.181676,0.2479 -0.314121,0.31412 -0.193069,0.0965 -0.44082,0.05 -0.628237,0.15706 -0.385702,0.2204 -0.586973,0.67582 -0.942359,0.94236 -0.5739,0.43042 -1.211659,0.74048 -1.727658,1.25648 -0.133474,0.13347 -0.157059,0.36647 -0.314118,0.47118 -0.179607,0.11973 -0.435171,0.0605 -0.62824,0.15706 -0.272161,0.13608 -0.455618,0.58801 -0.62824,0.7853 -0.261766,0.26176 -0.523531,0.52353 -0.785299,0.7853 -0.104707,0.0523 -0.231341,0.0743 -0.314119,0.15705 -0.319987,0.31999 -0.725532,1.29401 -0.942358,1.72766"
       id="path2" />
  </g>
</svg>
